<?xml version="1.0" encoding="UTF-8"?>
<svg version="1.1" xmlns="http://www.w3.org/2000/svg" width="562" height="444">
<path d="M0 0 C95.37 0 190.74 0 289 0 C289 3.91181975 288.94629935 4.58249499 286.98828125 7.609375 C286.55966797 8.28226563 286.13105469 8.95515625 285.68945312 9.6484375 C285.23505859 10.34195313 284.78066406 11.03546875 284.3125 11.75 C283.87744141 12.42804688 283.44238281 13.10609375 282.99414062 13.8046875 C282.11153703 15.18024155 281.22576408 16.55376692 280.33691406 17.92529297 C278.18774895 21.26050209 276.09634197 24.6314419 274 28 C270.65270389 33.35272462 267.27840817 38.66220932 263.625 43.8125 C260.5809279 48.11040797 257.73570453 52.51151349 254.91650391 56.95947266 C250.44048833 63.96483985 245.69976297 70.79201667 240.96484375 77.62402344 C240.33707031 78.53571289 239.70929688 79.44740234 239.0625 80.38671875 C238.49660156 81.20358154 237.93070313 82.02044434 237.34765625 82.86206055 C235.85214933 85.04626605 235.85214933 85.04626605 235 88 C234.34 88 233.68 88 233 88 C232.77570313 88.65742188 232.55140625 89.31484375 232.3203125 89.9921875 C230.56786566 93.98444806 228.26381782 97.48685791 225.875 101.125 C225.13685059 102.25832764 225.13685059 102.25832764 224.38378906 103.41455078 C221.01799285 108.54645933 217.49189452 113.53000555 213.83203125 118.45703125 C211.29775963 121.97475156 209.0181654 125.63475505 206.71875 129.30859375 C204.48717947 132.80303033 202.10708459 136.1797041 199.7109375 139.5625 C197.06853873 143.32701332 194.53180555 147.16055862 192 151 C184.78069017 149.89057377 179.22290628 141.5425645 175 136 C175 135.34 175 134.68 175 134 C174.01 133.67 173.02 133.34 172 133 C169.45105577 130.52676699 167.26624146 127.73146582 165 125 C163.98679687 123.86884766 163.98679687 123.86884766 162.953125 122.71484375 C158.10768021 117.06505512 158.10768021 117.06505512 157.78515625 113.875 C158.0625 111.9375 158.0625 111.9375 159 109 C159.66 109 160.32 109 161 109 C161.11303467 108.41766602 161.22606934 107.83533203 161.3425293 107.23535156 C162.06108372 104.79231989 163.01759534 103.2822556 164.51953125 101.234375 C165.30299927 100.15748413 165.30299927 100.15748413 166.10229492 99.05883789 C166.94884644 97.91596313 166.94884644 97.91596313 167.8125 96.75 C168.38911377 95.96165771 168.96572754 95.17331543 169.55981445 94.36108398 C174.06434652 88.21898665 178.62347113 82.11655129 183.21606445 76.04003906 C185.21338472 73.39708218 187.16178165 70.75732753 189 68 C189.66 68 190.32 68 191 68 C193.02293353 63.414684 194.81450256 59.28060718 193.0625 54.375 C189.74721075 50.5573942 185.64826243 48.425321 180.63256836 47.61978149 C177.89438216 47.45644724 175.18062738 47.42032777 172.4375 47.42578125 C171.353479 47.4119339 170.26945801 47.39808655 169.15258789 47.38381958 C165.43499208 47.34133442 161.71780257 47.32716848 158 47.3125 C155.3124684 47.28757464 152.62499334 47.26103929 149.9375 47.23266602 C143.57037606 47.16893108 137.20324849 47.12155231 130.8359375 47.08105469 C117.94732039 46.99816904 105.05903348 46.88001338 92.17068481 46.76358223 C61.11398445 46.48330899 30.05707685 46.23492882 -1 46 C-1.03016735 42.27085184 -1.04717137 38.5417363 -1.0625 34.8125 C-1.07087891 33.79607422 -1.07925781 32.77964844 -1.08789062 31.73242188 C-1.12021283 21.0984177 -0.50832183 10.67475837 0 0 Z " fill="#F7F7F7" transform="translate(147,57)"/>
<path d="M0 0 C4 0 4 0 5.88671875 1.64453125 C6.48097656 2.35996094 7.07523437 3.07539063 7.6875 3.8125 C8.28949219 4.52019531 8.89148438 5.22789062 9.51171875 5.95703125 C11 8 11 8 12 11 C12.99 11.33 13.98 11.66 15 12 C16.5078125 13.49609375 16.5078125 13.49609375 18.125 15.4375 C21.65775493 19.60915741 25.30347146 23.66185328 28.984375 27.703125 C34 33.41860465 34 33.41860465 34 36 C35.485 36.495 35.485 36.495 37 37 C38.93947256 39.01130488 39.88934078 40.40005347 40.3984375 43.16015625 C39.79674617 47.4486817 37.45093702 50.23966346 34.9375 53.6875 C34.43089844 54.40228516 33.92429687 55.11707031 33.40234375 55.85351562 C31.94396786 57.90900715 30.47246212 59.95459132 29 62 C27.83027247 63.66451987 26.66303782 65.33079902 25.5 67 C23.89155301 69.30282532 22.28157035 71.60418845 20.65332031 73.89306641 C19.13616509 76.0275297 17.63023447 78.16961807 16.125 80.3125 C15.39120117 81.33633789 15.39120117 81.33633789 14.64257812 82.38085938 C12.19780554 85.88078063 10.38915482 88.62623824 10 93 C17.45367024 94.04625575 24.81856945 94.10967392 32.33093643 94.07696915 C36.09436913 94.06546098 39.85769209 94.08615111 43.62109375 94.1015625 C48.38548072 94.11985147 53.1492149 94.12842312 57.91357422 94.09960938 C61.7888584 94.07702341 65.66274552 94.08854405 69.53792953 94.12261581 C71.00583367 94.1293584 72.4738514 94.12377823 73.94165421 94.10525894 C85.37769634 93.97012746 85.37769634 93.97012746 89.43247986 96.54418945 C91.18308634 98.27491304 92.60181507 99.98036129 94 102 C94.61488281 102.67546875 95.22976563 103.3509375 95.86328125 104.046875 C96.34152344 104.60890625 96.81976563 105.1709375 97.3125 105.75 C101.10906218 110.17065459 105.0805531 114.42300615 109.05859375 118.6796875 C111 121 111 121 111 123 C111.66 123 112.32 123 113 123 C117.60601898 127.46679422 121.3764264 132.7293475 125 138 C124.67 138.66 124.34 139.32 124 140 C55.36 140 -13.28 140 -84 140 C-82.87533777 133.25202662 -82.87533777 133.25202662 -80.55859375 129.71484375 C-79.81246826 128.55734619 -79.81246826 128.55734619 -79.05126953 127.37646484 C-78.51872559 126.57160645 -77.98618164 125.76674805 -77.4375 124.9375 C-76.33919514 123.24130522 -75.24154064 121.54468915 -74.14453125 119.84765625 C-73.60650879 119.02152832 -73.06848633 118.19540039 -72.51416016 117.34423828 C-70.49595987 114.21963991 -68.5575072 111.05331766 -66.625 107.875 C-63.91022361 103.43160816 -61.09321356 99.08556727 -58.12890625 94.8046875 C-56.83268406 92.88974999 -56.83268406 92.88974999 -56 90 C-55.34 90 -54.68 90 -54 90 C-53.74992187 89.32195312 -53.49984375 88.64390625 -53.2421875 87.9453125 C-51.76764876 84.44907914 -49.98958795 81.17306677 -48.125 77.875 C-47.73135254 77.17761719 -47.33770508 76.48023438 -46.93212891 75.76171875 C-42.4489092 67.91043898 -37.57800336 60.31283024 -32.71240234 52.6953125 C-28.8822064 46.66660375 -25.11768042 40.59644795 -21.33935547 34.53515625 C-18.36644487 29.77074177 -15.37569902 25.02006959 -12.34375 20.29296875 C-10.31510032 17.11519599 -8.34763098 13.92420159 -6.48828125 10.64453125 C-5.94010742 9.68256836 -5.94010742 9.68256836 -5.38085938 8.70117188 C-4.64734526 7.40444765 -3.92389015 6.10199739 -3.20898438 4.79492188 C-2.11328125 2.89453125 -2.11328125 2.89453125 0 0 Z " fill="#F9F9F9" transform="translate(187,261)"/>
<path d="M0 0 C18.48 0 36.96 0 56 0 C56 5.61951437 56 5.61951437 54.12890625 8.9765625 C53.72414063 9.71970703 53.319375 10.46285156 52.90234375 11.22851562 C52.46019531 12.01935547 52.01804687 12.81019531 51.5625 13.625 C48.00567602 20.16773729 44.62985764 26.74246484 41.5 33.5 C38.07341619 40.86095065 34.40502713 48.06004782 30.58984375 55.2265625 C28.16131224 59.78857029 25.79190418 64.36777113 23.5 69 C20.75237415 74.5470937 17.89535025 80.02866345 15 85.5 C10.88553316 93.27990071 6.90023723 101.11007056 3 109 C-1.49382807 118.0869934 -6.06821024 127.11778148 -10.85498047 136.0546875 C-12.83953173 139.76721896 -14.72259213 143.49504323 -16.5 147.3125 C-22.50701684 159.43010294 -31.52541237 169.55132954 -44 175 C-51.11873023 177.33060536 -57.66569154 177.10665601 -65 176 C-65.72703125 175.90976562 -66.4540625 175.81953125 -67.203125 175.7265625 C-79.20169198 173.72680134 -91.05944692 166.03994792 -100 158 C-100 157.34 -100 156.68 -100 156 C-100.99 155.67 -101.98 155.34 -103 155 C-103 154.34 -103 153.68 -103 153 C-103.556875 152.79375 -104.11375 152.5875 -104.6875 152.375 C-107.97012371 150.42316968 -109.70673246 148.05769006 -112 145 C-112 144.34 -112 143.68 -112 143 C-110.80503906 143.03480469 -109.61007812 143.06960938 -108.37890625 143.10546875 C-96.08541078 143.35867652 -86.63767955 142.96191777 -77.1015625 134.26953125 C-68.96395627 125.96044289 -64.98239519 115.43158707 -61.625 104.5 C-59.18712112 96.8426624 -55.4561413 90.48184652 -51.12451172 83.74951172 C-49.4645932 81.16701583 -47.8583499 78.5523437 -46.25 75.9375 C-45.60675781 74.89851563 -44.96351563 73.85953125 -44.30078125 72.7890625 C-42.44838228 69.76367371 -40.64827746 66.70948645 -38.85546875 63.6484375 C-38.2924707 62.6881665 -37.72947266 61.72789551 -37.14941406 60.73852539 C-36.03951868 58.84147802 -34.93317443 56.94234677 -33.83105469 55.04077148 C-30.64384434 49.59374455 -27.23439257 44.40963768 -23.57275391 39.27075195 C-21.90670976 36.86530696 -20.45554664 34.41510283 -19.04638672 31.85449219 C-16.17557561 26.76660577 -12.9647314 21.86469756 -9.86523438 16.9140625 C-9.31287109 16.0271875 -8.76050781 15.1403125 -8.19140625 14.2265625 C-7.69842041 13.43846191 -7.20543457 12.65036133 -6.69750977 11.83837891 C-4.37041666 7.94728378 -2.20184226 3.96331607 0 0 Z " fill="#F9F8F8" transform="translate(422,174)"/>
<path d="M0 0 C9.71887452 -0.05398452 19.4367725 -0.06708177 29.1557312 -0.02334595 C33.42970334 -0.00526717 37.70264136 0.00027166 41.9765625 -0.03076172 C45.87478081 -0.05881617 49.77113114 -0.04891686 53.66925049 -0.01119995 C55.1294924 -0.0037854 56.5898757 -0.01020105 58.04998779 -0.03103638 C69.40470322 -0.17998016 69.40470322 -0.17998016 73.39697266 2.77294922 C75.13853986 4.7663419 76.55527374 6.78853528 78 9 C79.65893182 10.34294481 81.32476605 11.67744688 83 13 C88 18.2892562 88 18.2892562 88 21 C89.485 21.495 89.485 21.495 91 22 C91 22.66 91 23.32 91 24 C91.66 24 92.32 24 93 24 C94.3046875 25.2578125 94.3046875 25.2578125 95.875 27.125 C96.79732422 28.2078125 96.79732422 28.2078125 97.73828125 29.3125 C98.85783203 30.6428125 98.85783203 30.6428125 100 32 C101.49285863 33.76131356 102.98849466 35.52018631 104.48681641 37.27685547 C105.5140994 38.48177215 106.53865206 39.68902362 107.56005859 40.89892578 C110.0572045 43.83416746 112.60028667 46.62410031 115.37109375 49.3046875 C118 52 118 52 118 54 C119.485 54.495 119.485 54.495 121 55 C122.5078125 56.49609375 122.5078125 56.49609375 124.125 58.4375 C127.72692425 62.70273364 131.48176816 66.80504546 135.27734375 70.8984375 C137 73 137 73 137 75 C137.99 75.33 138.98 75.66 140 76 C140 76.66 140 77.32 140 78 C140.66 78 141.32 78 142 78 C142.33 79.32 142.66 80.64 143 82 C142.41992188 82.24234375 141.83984375 82.4846875 141.2421875 82.734375 C137.49369637 84.34263852 133.92089623 85.91662296 130.5625 88.25 C128 90 128 90 126 90 C125.73316406 90.53625 125.46632813 91.0725 125.19140625 91.625 C124.31147938 93.37908372 123.42200822 95.12838714 122.52734375 96.875 C122.00269531 97.90625 121.47804688 98.9375 120.9375 100 C120.41027344 101.03125 119.88304687 102.0625 119.33984375 103.125 C117.1174208 107.89381425 116.86365276 111.59853171 116.875 116.875 C116.87242187 118.06867188 116.86984375 119.26234375 116.8671875 120.4921875 C116.99066604 123.75347351 117.38336743 126.79938334 118 130 C114.48487185 130 113.3540752 129.0447878 110.7734375 126.78515625 C107.82130349 123.81351475 105.29970441 120.50013677 102.6875 117.23046875 C98.5173582 112.12140741 93.90878796 107.40050113 89.38671875 102.60546875 C85.77963003 98.78031925 82.26380972 94.88168282 78.76953125 90.953125 C77.05196635 89.00626886 77.05196635 89.00626886 75.26171875 87.359375 C74 86 74 86 74 84 C72.515 83.505 72.515 83.505 71 83 C69.41284209 81.28835912 67.90010614 79.50672181 66.4375 77.6875 C65.65246094 76.72199219 64.86742187 75.75648438 64.05859375 74.76171875 C62 72 62 72 60.91015625 69.70703125 C60.0579068 67.63688749 60.0579068 67.63688749 57 67 C57 66.34 57 65.68 57 65 C56.34 65 55.68 65 55 65 C53.4140625 63.42578125 53.4140625 63.42578125 51.625 61.3125 C51.00109375 60.5803125 50.3771875 59.848125 49.734375 59.09375 C48.42780323 57.51644714 47.14535 55.91911912 45.875 54.3125 C43.08195228 50.86774115 39.90557776 47.85662762 36.6875 44.8125 C35 43 35 43 35 41 C34.34 41 33.68 41 33 41 C31.66015625 39.70703125 31.66015625 39.70703125 30.0625 37.8125 C29.45148438 37.09191406 28.84046875 36.37132812 28.2109375 35.62890625 C27.48132813 34.76136719 26.75171875 33.89382812 26 33 C25.05577378 31.90401112 24.11039177 30.80901727 23.1640625 29.71484375 C22.17153999 28.56018372 21.17935252 27.40523561 20.1875 26.25 C19.70740479 25.69546143 19.22730957 25.14092285 18.73266602 24.56958008 C16.41621786 21.85069987 14.38910958 19.30816848 13 16 C12.34 16 11.68 16 11 16 C9.30859375 14.35546875 9.30859375 14.35546875 7.4375 12.1875 C6.81746094 11.47980469 6.19742188 10.77210938 5.55859375 10.04296875 C4 8 4 8 3 5 C2.34 5 1.68 5 1 5 C0.67 3.35 0.34 1.7 0 0 Z " fill="#F8F7F7" transform="translate(155,153)"/>
<path d="M0 0 C6.90321332 4.13727936 11.82386666 9.76863456 14.0078125 17.57421875 C15.61398887 26.64181446 14.59079433 35.2637075 9.76171875 43.234375 C5.45085716 48.98219045 0.18020502 52.60901987 -6.5625 55 C-9.31482093 55.30581344 -11.76186038 55.47816706 -14.5 55.4375 C-15.20294189 55.43137695 -15.90588379 55.42525391 -16.63012695 55.41894531 C-22.17904437 55.25155716 -26.11245439 54.26640177 -30.5625 51 C-31.42875 50.443125 -32.295 49.88625 -33.1875 49.3125 C-40.09355614 42.58818217 -43.16742705 35.65459528 -43.5625 26 C-43.22549327 18.10140475 -40.9125694 12.77208505 -35.5625 7 C-34.78712891 6.14921875 -34.78712891 6.14921875 -33.99609375 5.28125 C-32.5625 4 -32.5625 4 -30.5625 4 C-30.5625 3.34 -30.5625 2.68 -30.5625 2 C-21.70983808 -3.50832297 -9.54568827 -4.30577682 0 0 Z " fill="#F5F5F4" transform="translate(327.5625,249)"/>
<path d="M0 0 C23.68922401 -0.13158431 47.32538221 0.1423397 71 1 C71 1.33 71 1.66 71 2 C48.56 2 26.12 2 3 2 C3 2.99 3 3.98 3 5 C2.34 5 1.68 5 1 5 C0.67 3.35 0.34 1.7 0 0 Z " fill="#DCD8D8" transform="translate(155,153)"/>
<path d="M0 0 C1.13991754 3.61629014 0.71567972 5.57364088 -0.8984375 9.05078125 C-2.91574366 12.62041166 -5.43821715 15.80813464 -8 19 C-9.32 18.67 -10.64 18.34 -12 18 C-11.55269531 17.53851563 -11.10539062 17.07703125 -10.64453125 16.6015625 C-5.92009376 11.50440819 -2.81795697 6.33715669 0 0 Z " fill="#B8B6B6" transform="translate(356,291)"/>
<path d="M0 0 C12.21 0 24.42 0 37 0 C37 0.33 37 0.66 37 1 C25.78 1.33 14.56 1.66 3 2 C3 2.99 3 3.98 3 5 C2.34 5 1.68 5 1 5 C0.67 3.35 0.34 1.7 0 0 Z " fill="#4B4B4B" transform="translate(155,153)"/>
<path d="M0 0 C6.93 0 13.86 0 21 0 C21 0.66 21 1.32 21 2 C15.06 2.33 9.12 2.66 3 3 C2.67 3.66 2.34 4.32 2 5 C1.34 3.35 0.68 1.7 0 0 Z " fill="#9C9998" transform="translate(310,317)"/>
<path d="M0 0 C4.62 0 9.24 0 14 0 C14 0.33 14 0.66 14 1 C10.37 1.33 6.74 1.66 3 2 C3 2.99 3 3.98 3 5 C2.34 5 1.68 5 1 5 C0.67 3.35 0.34 1.7 0 0 Z " fill="#6A6669" transform="translate(155,153)"/>
<path d="M0 0 C-1.94605136 4.17011006 -3.82988994 6.05394864 -8 8 C-6.48291727 4.46014029 -4.24676932 0 0 0 Z " fill="#C8C5C5" transform="translate(297,253)"/>
</svg>
