<?xml version="1.0" encoding="UTF-8"?>
<svg version="1.1" xmlns="http://www.w3.org/2000/svg" width="1254" height="1254">
<path d="M0 0 C413.82 0 827.64 0 1254 0 C1254 413.82 1254 827.64 1254 1254 C840.18 1254 426.36 1254 0 1254 C0 840.18 0 426.36 0 0 Z " fill="#FDFDFD" transform="translate(0,0)"/>
<path d="M0 0 C224.73 0 449.46 0 681 0 C674.29707113 12.28870293 674.29707113 12.28870293 670.8125 17.375 C669.94255047 18.65786535 669.07421363 19.94182502 668.20703125 21.2265625 C667.46380615 22.32726074 667.46380615 22.32726074 666.70556641 23.45019531 C663.5054937 28.23427195 660.36890469 33.06026114 657.22180176 37.87927246 C650.39357432 48.33412164 643.51101432 58.74973719 636.5625 69.125 C630.97489083 77.46934042 625.49919454 85.86861192 620.17382812 94.38256836 C616.5875186 100.10549454 612.87952046 105.73523729 609.1159668 111.34277344 C604.00554112 118.9660336 598.9696329 126.6374473 593.9375 134.3125 C593.26326492 135.34071869 593.26326492 135.34071869 592.57540894 136.38970947 C589.82910764 140.57820627 587.08386643 144.76739694 584.33892822 148.95678711 C582.62111945 151.57817411 580.90260041 154.19909499 579.184021 156.81997681 C569.52738285 171.54418914 569.52738285 171.54418914 559.90234375 186.2890625 C559.25185059 187.28800537 558.60135742 188.28694824 557.93115234 189.31616211 C556.75993939 191.11582707 555.5895603 192.91603527 554.42041016 194.71704102 C550.76860044 200.32996741 547.06650852 205.90795648 543.34765625 211.4765625 C536.97703355 221.01650192 530.67148551 230.59852569 524.375 240.1875 C517.41178058 250.79077746 510.43220286 261.38188086 503.38360596 271.92861938 C500.66937709 275.9920603 497.96019571 280.05886851 495.25 284.125 C494.05210221 285.92188758 492.85418535 287.71876246 491.65625 289.515625 C491.05425781 290.41861328 490.45226562 291.32160156 489.83203125 292.25195312 C484.34375 300.484375 484.34375 300.484375 482.53672791 303.19483948 C481.35171693 304.97240148 480.1667897 306.7500193 478.98194885 308.5276947 C476.3882686 312.41893742 473.7938111 316.30964577 471.19506836 320.19750977 C467.30729255 326.01621133 463.44030763 331.84575328 459.62890625 337.71484375 C458.95279297 338.74931641 458.27667969 339.78378906 457.58007812 340.84960938 C456.20000596 342.96180114 454.82797339 345.07926182 453.46289062 347.20117188 C452.79580078 348.21630859 452.12871094 349.23144531 451.44140625 350.27734375 C450.85045166 351.18734131 450.25949707 352.09733887 449.65063477 353.03491211 C449.10592529 353.68339111 448.56121582 354.33187012 448 355 C447.01 355 446.02 355 445 355 C443.06855001 352.98391683 441.31638786 350.9749977 439.5625 348.8125 C438.48916632 347.52291605 437.41358518 346.23519987 436.3359375 344.94921875 C435.78518555 344.29099121 435.23443359 343.63276367 434.66699219 342.95458984 C432.09035301 339.93341625 429.39770381 337.02614803 426.6875 334.125 C422.99712198 330.16456568 419.3676412 326.16674298 415.82421875 322.07421875 C412.10339848 317.84347878 408.26418021 313.71809608 404.44824219 309.57324219 C400.29039963 305.05652988 396.14274978 300.53055548 392 296 C391.20464844 295.13375 390.40929687 294.2675 389.58984375 293.375 C372.2147856 274.30117974 372.2147856 274.30117974 372.51953125 266.36328125 C374.63479679 255.95892636 384.17115211 246.17122249 390.3828125 237.8671875 C393.68708133 233.44342049 396.89470805 228.95966464 400.0625 224.4375 C408.19576432 212.84402515 416.51821246 201.38697914 424.86328125 189.9453125 C426.55595202 187.61208808 428.23945249 185.27307407 429.91796875 182.9296875 C436.00178221 174.44894025 442.16333838 166.052511 448.59838867 157.83349609 C457.04339838 147.11903671 457.04339838 147.11903671 459 134 C456.66194254 124.94002735 451.63341199 120.40496303 443.79296875 115.640625 C442.41044922 114.82851563 442.41044922 114.82851563 441 114 C440.31550781 113.58234375 439.63101562 113.1646875 438.92578125 112.734375 C425.52263321 105.20388512 406.9556922 106.85035869 392.02972412 106.84178162 C390.33232294 106.83720754 388.63492287 106.8322063 386.93752408 106.82681805 C382.30139502 106.81332379 377.66527323 106.80584405 373.02912974 106.79939139 C368.01906029 106.79134886 363.00900578 106.77766449 357.99894714 106.76467896 C349.32800518 106.74297061 340.65706166 106.72480563 331.98610687 106.70907402 C319.44949085 106.68632383 306.91289142 106.65818825 294.37628952 106.62875474 C274.03455843 106.58114181 253.69282053 106.53786064 233.35107422 106.49731445 C213.59553498 106.45792742 193.84000178 106.41649354 174.08447266 106.37231445 C172.86594415 106.36959018 171.64741564 106.36686591 170.39196202 106.36405908 C164.27872442 106.35037908 158.1654869 106.33665891 152.05224943 106.32291877 C101.36817815 106.209053 50.68409471 106.10302184 0 106 C0 71.02 0 36.04 0 0 Z " fill="#000000" transform="translate(308,211)"/>
<path d="M0 0 C2 0 2 0 3.41015625 1.3984375 C3.95542969 2.05070313 4.50070312 2.70296875 5.0625 3.375 C7.82817409 6.62941067 10.63308192 9.83413833 13.5 13 C16.13180445 15.91488929 18.74286926 18.84273211 21.3125 21.8125 C24.47076099 25.44192347 27.72934761 28.97227454 31 32.5 C34.82790023 36.62877295 38.60858423 40.78486012 42.29296875 45.04296875 C44.33633431 47.3855915 46.41680859 49.69273422 48.5 52 C51.15113994 54.93678465 53.78290171 57.88602542 56.375 60.875 C59.82851561 64.84252724 63.3900394 68.7084764 66.95263672 72.57763672 C70.06104181 75.95921439 73.10750782 79.38389593 76.10546875 82.86328125 C77.64453127 84.59908991 79.20854474 86.29410468 80.80078125 87.98046875 C81.29707031 88.50962891 81.79335938 89.03878906 82.3046875 89.58398438 C83.28702282 90.62866999 84.27505531 91.66803669 85.26953125 92.70117188 C88.02803914 95.64384152 90.00906614 98.06884916 91 102 C89.91699219 104.54858398 89.91699219 104.54858398 88.046875 107.24609375 C87.37011719 108.24068604 86.69335938 109.23527832 85.99609375 110.26000977 C85.25488281 111.30858154 84.51367188 112.35715332 83.75 113.4375 C83.00363281 114.52281006 82.25726563 115.60812012 81.48828125 116.72631836 C79.34506874 119.83179429 77.1783622 122.91911286 75 126 C74.50822266 126.69899414 74.01644531 127.39798828 73.50976562 128.11816406 C71.57982072 130.8555349 69.62817158 133.57609578 67.6640625 136.2890625 C62.02472139 144.09974773 56.59336786 152.06130371 51.10107422 159.97558594 C48.38351041 163.88741263 45.65787395 167.7935786 42.93212891 171.69970703 C40.94864705 174.54650119 38.97181345 177.39781481 36.99609375 180.25 C34.24134463 184.22567356 31.45812621 188.17964303 28.66015625 192.125 C27.27305422 194.10389807 25.88632256 196.0830558 24.5 198.0625 C23.84636475 198.97265869 23.19272949 199.88281738 22.51928711 200.82055664 C19.07472835 205.727626 19.07472835 205.727626 17.48828125 211.41796875 C18.20636907 215.04129736 19.63281538 217.18496964 22 220 C24.60437233 221.41190564 24.60437233 221.41190564 27 222 C27 222.66 27 223.32 27 224 C27.88329955 223.99078207 28.7665991 223.98156414 29.67666531 223.97206688 C51.18517241 223.75106961 72.69348341 223.58566934 94.20288754 223.48187828 C104.60483044 223.4303491 115.00601476 223.36011852 125.4074707 223.24560547 C134.47515312 223.14582409 143.54228612 223.08139247 152.6105023 223.05911505 C157.41087186 223.04609534 162.20966987 223.01557809 167.00953484 222.94269943 C171.53179945 222.87459488 176.0518524 222.85392729 180.57458115 222.86892319 C182.23024475 222.86618188 183.88598562 222.84641735 185.54120445 222.80794525 C198.01994486 222.5322375 198.01994486 222.5322375 202.92245674 226.16633987 C205.20178404 228.67087822 207.10858713 231.19635087 209 234 C210.10646191 235.30758166 211.22805293 236.60278138 212.375 237.875 C212.92929687 238.51179687 213.48359375 239.14859375 214.0546875 239.8046875 C216.97620437 243.10166036 219.96688272 246.33475749 222.95043945 249.57543945 C226.08517052 252.98598806 229.15726302 256.44159116 232.19140625 259.94140625 C234.4301125 262.4895665 236.71410212 264.99410593 239 267.5 C242.43264761 271.26350521 245.8155501 275.06129351 249.15625 278.90625 C251.40876457 281.46419027 253.70317092 283.9817898 256 286.5 C261.01913521 292.00899075 265.94120436 297.58723517 270.78125 303.25390625 C271.28495117 303.84341064 271.78865234 304.43291504 272.30761719 305.0402832 C273.35047588 306.26101266 274.39279594 307.48220247 275.43457031 308.70385742 C279.28035777 313.19969686 283.2243478 317.58510588 287.2578125 321.9140625 C288.89653321 323.87611824 289.97680609 325.66880563 291 328 C285.82240237 328.85772597 280.79891227 329.14116443 275.54862309 329.12304783 C274.71999656 329.12420167 273.89137004 329.12535552 273.03763363 329.12654433 C270.26099508 329.12919122 267.48441451 329.12470471 264.70777893 329.12025452 C262.69708443 329.12069061 260.68638998 329.12156623 258.67569584 329.12284368 C253.15033916 329.12508111 247.62500185 329.12107761 242.09964764 329.11606562 C236.14129647 329.11175055 230.18294641 329.1132083 224.22459412 329.1139679 C213.90128394 329.11449246 203.57797963 329.11138761 193.2546711 329.10573006 C182.42824842 329.099812 171.60182826 329.0959639 160.77540398 329.09487724 C160.10212062 329.0948085 159.42883726 329.09473976 158.73515138 329.09466894 C155.31585226 329.09433061 151.89655315 329.09402922 148.47725403 329.09374207 C124.26160839 329.09164194 100.04596605 329.08490538 75.83032227 329.07543945 C52.30590838 329.06625434 28.7814954 329.05917106 5.25708008 329.05493164 C4.16929434 329.05473435 4.16929434 329.05473435 3.05953314 329.05453308 C-4.22316188 329.05321455 -11.5058569 329.05193874 -18.78855193 329.05069422 C-33.6240951 329.04815804 -48.4596382 329.04533679 -63.29518127 329.04234314 C-63.97728786 329.04220585 -64.65939445 329.04206856 -65.36217093 329.04192711 C-110.90811534 329.03272724 -156.45405785 329.01686133 -202 329 C-200.83453412 325.4050792 -199.73954418 322.23691497 -197.671875 319.06640625 C-197.20942383 318.34767334 -196.74697266 317.62894043 -196.27050781 316.88842773 C-195.76874023 316.12087158 -195.26697266 315.35331543 -194.75 314.5625 C-193.65453584 312.8578712 -192.56085981 311.15209228 -191.46875 309.4453125 C-190.61216797 308.10774902 -190.61216797 308.10774902 -189.73828125 306.74316406 C-186.84626216 302.17929799 -184.04846076 297.5591219 -181.25 292.9375 C-170.91123922 275.89056988 -160.43890835 258.92602071 -149.93774414 241.97875977 C-140.02648353 225.97764964 -130.174851 209.93978923 -120.3671875 193.875 C-116.92669142 188.24060419 -113.46837325 182.61727257 -110 177 C-109.32445068 175.90558594 -109.32445068 175.90558594 -108.63525391 174.7890625 C-97.86446188 157.34694139 -87.03963837 139.93812469 -76.0625 122.625 C-70.67482471 114.12251787 -65.40221487 105.55091176 -60.13745117 96.97192383 C-55.5868466 89.56198938 -50.99550021 82.17902147 -46.375 74.8125 C-41.45957861 66.97383875 -36.60795883 59.1001063 -31.8125 51.1875 C-27.11728567 43.44108327 -22.35725722 35.74255957 -17.48999023 28.10302734 C-14.75998819 23.81217331 -12.07503348 19.49839637 -9.43359375 15.15234375 C-8.84006104 14.1792627 -8.24652832 13.20618164 -7.63500977 12.20361328 C-6.47974413 10.30589437 -5.33028964 8.40462314 -4.18725586 6.49951172 C-3.6691333 5.65018066 -3.15101074 4.80084961 -2.6171875 3.92578125 C-2.15940918 3.16692627 -1.70163086 2.40807129 -1.22998047 1.6262207 C-0.82408691 1.08956787 -0.41819336 0.55291504 0 0 Z " fill="#010101" transform="translate(405,692)"/>
<path d="M0 0 C3.5910683 0.08796321 7.18232481 0.09577554 10.77430415 0.11235571 C17.56477226 0.15574566 24.35205711 0.27044105 31.14112777 0.41124856 C38.87471587 0.56813779 46.60846215 0.64480552 54.34324729 0.71498466 C70.24353781 0.86103581 86.14065815 1.10701926 102.03860164 1.41951513 C100.90535741 4.96112065 99.70836908 8.32991395 98.04250789 11.65462255 C97.65450007 12.43371481 97.26649226 13.21280706 96.86672664 14.01550817 C96.44907039 14.84363516 96.03141414 15.67176214 95.60110164 16.52498388 C95.16153132 17.40366629 94.72196101 18.28234869 94.26907039 19.18765783 C93.33623244 21.05031773 92.4014544 22.91200711 91.46487117 24.77278662 C90.06699493 27.55059305 88.67529822 30.33142114 87.28469539 33.11287451 C82.48098143 42.70075168 77.58627388 52.23304918 72.5675323 61.71008825 C68.772398 68.88869849 65.1364716 76.14051871 61.53860164 83.41951513 C57.53600513 91.51733021 53.45588213 99.56258942 49.22610164 107.54451513 C43.82240322 117.75012236 38.67086836 128.07541167 33.53860164 138.41951513 C28.08218576 149.41694248 22.57866388 160.37764318 16.83120418 171.22627783 C11.79698644 180.73765428 6.92420719 190.33121508 2.03860164 199.91951513 C-3.67717885 211.13708433 -9.41882774 222.33734039 -15.29881597 233.46986914 C-19.3258632 241.09684421 -23.29467378 248.75316305 -27.24142766 256.42195654 C-28.42114646 258.71271613 -29.60436733 261.00164731 -30.78757024 263.29060888 C-31.55275744 264.77617615 -32.31773943 266.26184914 -33.08249211 267.74764013 C-33.42936574 268.41748938 -33.77623937 269.08733862 -34.13362432 269.77748632 C-36.26225103 273.92522401 -38.16933191 278.11521575 -39.96139836 282.41951513 C-40.62139836 282.41951513 -41.28139836 282.41951513 -41.96139836 282.41951513 C-42.37325383 283.73109594 -42.37325383 283.73109594 -42.79342961 285.06917334 C-43.88781781 288.20844783 -45.15845042 291.05710389 -46.64889836 294.02498388 C-47.17749455 295.08096777 -47.70609075 296.13695166 -48.250705 297.22493505 C-48.81523381 298.34102148 -49.37976262 299.45710791 -49.96139836 300.60701513 C-50.54590764 301.76886328 -51.13041692 302.93071142 -51.7326386 304.12776709 C-55.87598489 312.33805593 -60.10385301 320.49942743 -64.42233586 328.61873388 C-66.30924845 332.1699963 -68.16132043 335.73781187 -70.00046086 339.31404638 C-77.58243242 354.04126981 -85.63316704 367.47547359 -95.96139836 380.41951513 C-96.52342961 381.15041357 -97.08546086 381.88131201 -97.66452336 382.63435888 C-110.97942062 399.07623958 -132.13146262 409.81577316 -152.96139836 412.41951513 C-188.04251032 414.13168784 -220.92984 404.44245657 -247.96139836 381.41951513 C-249.05718155 380.50086487 -250.15355094 379.58291346 -251.25046086 378.66560888 C-253.46529275 376.80652384 -255.66615638 374.93239717 -257.85983586 373.04842138 C-260.58452411 370.71811794 -263.38972131 368.50667584 -266.21139836 366.29451513 C-271.44255894 362.04613177 -276.19574061 357.36766062 -280.96139836 352.60701513 C-282.07563176 351.49399023 -282.07563176 351.49399023 -283.21237493 350.35847998 C-291.96139836 341.5189494 -291.96139836 341.5189494 -291.96139836 338.41951513 C-291.31299993 338.49170263 -290.66460149 338.56389013 -289.99655461 338.63826513 C-265.96978617 340.91149421 -245.24787116 340.43840794 -223.96139836 328.41951513 C-223.09514836 327.93482763 -222.22889836 327.45014013 -221.33639836 326.95076513 C-198.58115671 312.97254526 -182.58370399 282.63510175 -176.20895696 257.4463706 C-175.73259635 255.35507163 -175.25627916 253.26376277 -174.78000188 251.17244482 C-171.09838251 235.33327904 -163.9179555 223.14332977 -155.12301946 209.74568701 C-151.86387972 204.73071979 -148.79258776 199.6074342 -145.71139836 194.48201513 C-140.80308545 186.40269115 -135.83762977 178.35971074 -130.85275578 170.32747412 C-124.48997601 160.06483295 -118.22862493 149.7406743 -111.96139836 139.41951513 C-104.06001575 126.41034903 -96.12483732 113.42325586 -88.13595891 100.46761084 C-83.54906845 93.02100257 -79.00190135 85.5513823 -74.47317815 78.06935644 C-68.20672937 67.71641831 -61.86477659 57.41551359 -55.42746282 47.16756201 C-50.52956613 39.36021141 -45.72269994 31.5002558 -40.96652532 23.60579443 C-39.92378264 21.88111692 -38.85226882 20.17343867 -37.74991155 18.48624182 C-35.84426029 15.43209505 -35.84426029 15.43209505 -34.6822083 11.86263037 C-28.67964147 -3.16220339 -13.86443415 -0.39708813 0 0 Z " fill="#010101" transform="translate(984.9613983631134,486.58048486709595)"/>
<path d="M0 0 C21.39226134 -0.1869314 42.78438791 -0.32797952 64.17730045 -0.41449738 C74.11058425 -0.45573813 84.04336041 -0.51195719 93.97631836 -0.60351562 C102.63453001 -0.68328582 111.29237402 -0.73487332 119.95094293 -0.75270796 C124.53527906 -0.76313257 129.11856351 -0.78760676 133.70256233 -0.84584045 C138.01943498 -0.90023518 142.33482525 -0.91687479 146.65200806 -0.90486145 C148.23429363 -0.90705832 149.81662991 -0.92292014 151.3986187 -0.9536438 C163.35890612 -1.1744857 163.35890612 -1.1744857 167.46335411 1.76295471 C169.2293036 3.75982671 170.62354054 5.72423201 172 8 C173.22954633 9.34259467 174.46656465 10.67849462 175.71875 12 C176.65267578 12.99 176.65267578 12.99 177.60546875 14 C178.23066406 14.66 178.85585938 15.32 179.5 16 C183.87503402 20.61859261 188.15929393 25.28960712 192.33007812 30.09375 C194.83074227 32.94830931 197.41269416 35.7241525 200 38.5 C203.80819395 42.60484461 207.56317016 46.74132355 211.2265625 50.9765625 C213.45138092 53.51501171 215.72503319 56.00641776 218 58.5 C220.82577384 61.59731967 223.63218779 64.7040415 226.375 67.875 C230.02264177 72.07583863 233.8124982 76.14106074 237.5949707 80.2199707 C240.8509951 83.73733457 244.03826588 87.30206495 247.17578125 90.92578125 C251.36701517 95.69140269 255.70073776 100.33190025 260 105 C265.43816317 110.904708 270.86707222 116.80816025 276.125 122.875 C278.54550075 125.61823418 281.02200642 128.30884568 283.5 131 C287.10012756 134.90981595 290.64417605 138.85866468 294.125 142.875 C296.54550075 145.61823418 299.02200642 148.30884568 301.5 151 C305.10012756 154.90981595 308.64417605 158.85866468 312.125 162.875 C315.0126727 166.14769572 317.97857636 169.34842736 320.93554688 172.55834961 C324.20538078 176.11446405 327.41222043 179.71670625 330.5625 183.37890625 C331.99353735 185.04149063 331.99353735 185.04149063 333.6875 186.58984375 C335 188 335 188 335 190 C334.00742187 190.27972656 333.01484375 190.55945313 331.9921875 190.84765625 C309.76643715 197.31042401 294.43762358 207.74819422 283 228 C281.44867322 230.84224527 279.97951184 233.71357651 278.5625 236.625 C278.24442383 237.26840332 277.92634766 237.91180664 277.59863281 238.57470703 C272.75492185 249.06246225 271.48663349 259.93505494 271.625 271.375 C271.63080078 272.54949707 271.63660156 273.72399414 271.64257812 274.93408203 C271.75710775 282.61074795 272.44608779 289.74717717 274.34375 297.1796875 C274.97637212 299.89845636 275.12302946 302.22158468 275 305 C270.76942243 300.82615431 266.68816381 296.52398909 262.625 292.1875 C261.67367187 291.17719727 261.67367187 291.17719727 260.703125 290.14648438 C256.90569 286.09717868 253.19934625 281.98338243 249.55859375 277.79272461 C247.62543983 275.56917367 245.66084156 273.37541851 243.6875 271.1875 C242.55248047 269.92873047 242.55248047 269.92873047 241.39453125 268.64453125 C238.89380296 265.88271551 236.38481427 263.12855951 233.875 260.375 C230.46266471 256.62616323 227.0959595 252.84453423 223.76953125 249.01953125 C220.98110726 245.83715774 218.14354171 242.69950574 215.30859375 239.55859375 C213.8188072 237.90747667 212.33163123 236.25399856 210.84765625 234.59765625 C206.56400626 229.81824929 202.23682706 225.08290724 197.875 220.375 C194.15193533 216.35616976 190.48909003 212.30110416 186.90625 208.15625 C184.31715042 205.22759638 181.65805319 202.36601823 179 199.5 C175.78840358 196.03712954 172.5889722 192.57351686 169.5 189 C165.94316962 184.88795707 162.24416316 180.9123038 158.54956055 176.92456055 C153.25964241 171.21111809 148.06009533 165.41878782 142.8671875 159.6171875 C138.61463771 154.87689007 134.32529084 150.17381915 130 145.5 C124.22644481 139.26121657 118.53639605 132.95091866 112.8671875 126.6171875 C108.57520335 121.83293277 104.24307341 117.0896492 99.875 112.375 C96.15193533 108.35616976 92.48909003 104.30110416 88.90625 100.15625 C86.31715042 97.22759638 83.65805319 94.36601823 81 91.5 C77.78840358 88.03712954 74.5889722 84.57351686 71.5 81 C67.94316962 76.88795707 64.24416316 72.9123038 60.54956055 68.92456055 C55.98387076 63.99333 51.48438084 59.00525267 47 54 C45.45847359 52.2915401 43.91680647 50.58320716 42.375 48.875 C39.78609747 46.00091715 37.21944454 43.11180399 34.6875 40.1875 C31.01558017 35.96778794 27.20627187 31.87896889 23.40307617 27.77807617 C20.18156301 24.2983174 17.02684653 20.77434036 13.93359375 17.1796875 C12.28587691 15.32226125 10.6096338 13.50504016 8.91015625 11.6953125 C8.35972656 11.1075 7.80929687 10.5196875 7.2421875 9.9140625 C6.13575529 8.73558354 5.02516691 7.5609908 3.91015625 6.390625 C0 2.22112165 0 2.22112165 0 0 Z " fill="#010101" transform="translate(327,439)"/>
<path d="M0 0 C1.63412842 0.00749268 1.63412842 0.00749268 3.30126953 0.01513672 C12.2767223 0.20837215 19.48612008 1.69039264 27.6875 5.5 C28.62980469 5.88800781 29.57210937 6.27601563 30.54296875 6.67578125 C44.22369231 13.05222239 54.38716008 25.56264246 59.91723633 39.36621094 C63.01113883 47.93695827 64.21384314 55.76682968 64.125 64.875 C64.11670166 65.97553711 64.10840332 67.07607422 64.09985352 68.20996094 C63.93106509 76.32381884 63.14727534 83.06864824 59.6875 90.5 C59.18992187 91.58023438 58.69234375 92.66046875 58.1796875 93.7734375 C48.93505188 112.21971043 35.10595344 123.49657658 15.8671875 130.53125 C-0.62389864 135.49235669 -18.18682566 133.06995561 -33.30053711 125.32763672 C-38.45182605 122.55834287 -42.95080106 119.37894779 -47.3125 115.5 C-48.32376953 114.64535156 -48.32376953 114.64535156 -49.35546875 113.7734375 C-59.59440112 104.46531716 -67.66101629 88.87413919 -68.45776367 74.96386719 C-68.48249277 72.05912884 -68.49815448 69.15485132 -68.5 66.25 C-68.51224609 65.25097656 -68.52449219 64.25195312 -68.53710938 63.22265625 C-68.56868917 47.1169609 -62.65210926 33.05842703 -51.44482422 21.45703125 C-37.08914068 7.2147729 -20.29274636 -0.12348527 0 0 Z " fill="#020202" transform="translate(700.3125,659.5)"/>
<path d="M0 0 C11.22 0 22.44 0 34 0 C34 0.33 34 0.66 34 1 C44.89 1.495 44.89 1.495 56 2 C56 2.33 56 2.66 56 3 C4.19 3 -47.62 3 -101 3 C-101 2.67 -101 2.34 -101 2 C-67.67 1.67 -34.34 1.34 0 1 C0 0.67 0 0.34 0 0 Z " fill="#BBBABB" transform="translate(533,913)"/>
<path d="M0 0 C6.27 0 12.54 0 19 0 C18.67 0.66 18.34 1.32 18 2 C12.4570561 3.45866945 6.68676891 3.09106925 1 3 C0.67 2.01 0.34 1.02 0 0 Z " fill="#313031" transform="translate(711,827)"/>
<path d="M0 0 C5.61 0 11.22 0 17 0 C17 0.66 17 1.32 17 2 C14.70839646 2.16753237 12.41671509 2.33400052 10.125 2.5 C8.84882812 2.5928125 7.57265625 2.685625 6.2578125 2.78125 C4.50763316 2.89876804 2.75412035 3 1 3 C0.67 2.01 0.34 1.02 0 0 Z " fill="#F5F5F5" transform="translate(547,1022)"/>
<path d="M0 0 C6.6 0 13.2 0 20 0 C20 0.33 20 0.66 20 1 C15.38 1 10.76 1 6 1 C5.67 2.65 5.34 4.3 5 6 C3.2925002 4.71937515 1.62626404 3.38232443 0 2 C0 1.34 0 0.68 0 0 Z " fill="#121212" transform="translate(327,439)"/>
<path d="M0 0 C0.33 0 0.66 0 1 0 C1 4.95 1 9.9 1 15 C0.67 15 0.34 15 0 15 C0 13.02 0 11.04 0 9 C-0.66 9 -1.32 9 -2 9 C-1.125 2.25 -1.125 2.25 0 0 Z " fill="#B6B7B6" transform="translate(631,718)"/>
<path d="M0 0 C0.66 0.33 1.32 0.66 2 1 C0.02 3.97 0.02 3.97 -2 7 C-2.99 6.67 -3.98 6.34 -5 6 C-3.35 4.02 -1.7 2.04 0 0 Z M-7 7 C-6.34 7.33 -5.68 7.66 -5 8 C-5.99 8.99 -6.98 9.98 -8 11 C-8.66 10.67 -9.32 10.34 -10 10 C-9.01 9.01 -8.02 8.02 -7 7 Z " fill="#D8D8D9" transform="translate(749,767)"/>
<path d="M0 0 C1 4 1 4 0.00390625 6.140625 C-0.47175781 6.83671875 -0.94742188 7.5328125 -1.4375 8.25 C-1.91058594 8.95640625 -2.38367188 9.6628125 -2.87109375 10.390625 C-3.24363281 10.92171875 -3.61617187 11.4528125 -4 12 C-4.99 11.67 -5.98 11.34 -7 11 C-4.69 7.37 -2.38 3.74 0 0 Z " fill="#E2E1E2" transform="translate(772,540)"/>
<path d="M0 0 C0.33 1.32 0.66 2.64 1 4 C-0.21484375 5.921875 -0.21484375 5.921875 -1.9375 7.75 C-2.50339844 8.36359375 -3.06929687 8.9771875 -3.65234375 9.609375 C-4.31943359 10.29773438 -4.31943359 10.29773438 -5 11 C-5.66 10.67 -6.32 10.34 -7 10 C-3.535 5.05 -3.535 5.05 0 0 Z " fill="#2D2D2E" transform="translate(734,399)"/>
<path d="M0 0 C0.66 1.32 1.32 2.64 2 4 C1.34 4 0.68 4 0 4 C-0.28875 4.804375 -0.5775 5.60875 -0.875 6.4375 C-2 9 -2 9 -4 10 C-2.8905928 6.51329166 -1.73662334 3.22515763 0 0 Z " fill="#C5C4C5" transform="translate(943,769)"/>
<path d="M0 0 C0.6875 1.6875 0.6875 1.6875 1 4 C-0.25 6.6875 -0.25 6.6875 -2 9 C-2.99 9.33 -3.98 9.66 -5 10 C-3.66511872 6.40608886 -2.03977277 3.24509304 0 0 Z " fill="#1F1F20" transform="translate(364,758)"/>
<path d="M0 0 C1 3 1 3 -0.375 6.0625 C-0.91125 7.031875 -1.4475 8.00125 -2 9 C-2.33 9.66 -2.66 10.32 -3 11 C-3.66 11 -4.32 11 -5 11 C-3.77472971 6.94718288 -2.30119506 3.55639236 0 0 Z " fill="#D9D9DA" transform="translate(977,704)"/>
<path d="M0 0 C0.66 0.33 1.32 0.66 2 1 C1.25 3.875 1.25 3.875 0 7 C-1.98 7.99 -1.98 7.99 -4 9 C-2.68 6.03 -1.36 3.06 0 0 Z " fill="#EAEAEB" transform="translate(995,669)"/>
<path d="M0 0 C0.66 0 1.32 0 2 0 C1.25 2.875 1.25 2.875 0 6 C-1.98 6.99 -1.98 6.99 -4 8 C-2.68 5.36 -1.36 2.72 0 0 Z " fill="#151516" transform="translate(796,775)"/>
<path d="M0 0 C1 3 1 3 0.3125 5.625 C-0.3371875 6.800625 -0.3371875 6.800625 -1 8 C-2.32 8.33 -3.64 8.66 -5 9 C-3.35 6.03 -1.7 3.06 0 0 Z " fill="#D6D5D7" transform="translate(764,552)"/>
<path d="M0 0 C0.66 0 1.32 0 2 0 C1.8125 1.8125 1.8125 1.8125 1 4 C-1.5625 5.75 -1.5625 5.75 -4 7 C-3.34 5.35 -2.68 3.7 -2 2 C-1.34 2 -0.68 2 0 2 C0 1.34 0 0.68 0 0 Z " fill="#141415" transform="translate(881,871)"/>
<path d="M0 0 C2.86724686 0.57344937 3.8614515 0.8614515 6 3 C5.01 3.99 4.02 4.98 3 6 C0 2.25 0 2.25 0 0 Z " fill="#232324" transform="translate(693,825)"/>
<path d="M0 0 C1.98 1.65 3.96 3.3 6 5 C5.34 5.66 4.68 6.32 4 7 C2.35 5.02 0.7 3.04 -1 1 C-0.67 0.67 -0.34 0.34 0 0 Z " fill="#191919" transform="translate(451,743)"/>
<path d="M0 0 C0.33 0.99 0.66 1.98 1 3 C-0.4375 5.1875 -0.4375 5.1875 -2 7 C-2.99 6.67 -3.98 6.34 -5 6 C-3.35 4.02 -1.7 2.04 0 0 Z " fill="#1E1F1F" transform="translate(756,370)"/>
</svg>
