<?xml version="1.0" encoding="UTF-8"?>
<svg version="1.1" xmlns="http://www.w3.org/2000/svg" width="500" height="500">
<path d="M0 0 C90.09 0 180.18 0 273 0 C271.9882688 5.05865598 270.24622511 8.02332481 267.375 12.125 C266.46495427 13.45100593 265.55610928 14.77783669 264.6484375 16.10546875 C263.97506348 17.08652588 263.97506348 17.08652588 263.28808594 18.08740234 C260.86235509 21.68921725 258.62400932 25.40698461 256.375 29.12109375 C255.92125 29.74113281 255.4675 30.36117187 255 31 C254.34 31 253.68 31 253 31 C252.731875 31.886875 252.46375 32.77375 252.1875 33.6875 C251.0749365 36.7909666 249.89804222 39.31110685 248 42 C247.34 42 246.68 42 246 42 C246 42.99 246 43.98 246 45 C245.34 45 244.68 45 244 45 C244 45.99 244 46.98 244 48 C243.34 48 242.68 48 242 48 C241.90589844 48.55042969 241.81179688 49.10085937 241.71484375 49.66796875 C240.80362923 52.64061939 239.32464911 54.74905169 237.5625 57.3125 C236.83804688 58.37726563 236.11359375 59.44203125 235.3671875 60.5390625 C234.98014648 61.10399414 234.59310547 61.66892578 234.19433594 62.25097656 C232.17019131 65.21519817 230.17879391 68.20115026 228.1875 71.1875 C227.77201904 71.80963379 227.35653809 72.43176758 226.9284668 73.07275391 C223.22283819 78.63507226 219.59442395 84.24596373 215.97216797 89.86279297 C212.04284163 95.95010813 208.03632814 101.98311333 204 108 C202.70772603 109.93709499 201.41607192 111.87460363 200.125 113.8125 C197.90344277 117.14702673 195.67928349 120.47975318 193.44921875 123.80859375 C189.20479879 130.15009019 184.9852317 136.49078822 181 143 C176.68819268 142.51594564 174.9410446 141.37995134 172.1875 138.0625 C171.58292969 137.35222656 170.97835937 136.64195312 170.35546875 135.91015625 C169 134 169 134 169 132 C168.34 132 167.68 132 167 132 C167 131.34 167 130.68 167 130 C166.34 130 165.68 130 165 130 C162.45289515 127.53756346 160.26771933 124.71871042 158 122 C157.19949219 121.06285156 156.39898437 120.12570313 155.57421875 119.16015625 C154.76597656 118.19980469 153.95773437 117.23945313 153.125 116.25 C152.36445313 115.34765625 151.60390625 114.4453125 150.8203125 113.515625 C148.08042754 109.72917454 148.08042754 109.72917454 148 107 C149.15234375 104.58984375 149.15234375 104.58984375 150.9375 101.9375 C151.58976563 100.96296875 152.24203125 99.9884375 152.9140625 98.984375 C155.50889647 95.27191591 158.14359244 91.59447137 160.83203125 87.94921875 C163.68692572 84.06553348 166.48411876 80.14195536 169.26855469 76.20751953 C171.26032396 73.40065461 173.27853366 70.63822639 175.37890625 67.91015625 C180.85179696 61.18900075 180.85179696 61.18900075 182 53 C178.33635782 48.15106182 174.6421771 46.44063218 168.78005123 45.46301365 C165.11012375 45.01348892 161.58972861 44.8614837 157.8941803 44.84178162 C157.21441318 44.83684364 156.53464607 44.83190566 155.83427995 44.82681805 C153.57580153 44.81156372 151.31735126 44.8031155 149.05883789 44.79467773 C147.43220781 44.7850897 145.80558017 44.77507908 144.17895508 44.76467896 C139.77663312 44.73772408 135.37430055 44.71666373 130.97194219 44.69667697 C126.36615789 44.6747591 121.76040597 44.64739887 117.15464783 44.62062073 C108.43902914 44.5707721 99.7233924 44.52580432 91.00773853 44.48259836 C81.08271343 44.43315894 71.15772082 44.37826574 61.23272717 44.32291877 C40.82184698 44.20921897 20.41093681 44.10307382 0 44 C0 29.48 0 14.96 0 0 Z " fill="#050505" transform="translate(122,83)"/>
<path d="M0 0 C3.387199 1.4388102 5.3594104 3.22119499 7.75 6 C8.36359375 6.70125 8.9771875 7.4025 9.609375 8.125 C11 10 11 10 11 12 C11.66 12 12.32 12 13 12 C14.4453125 13.43359375 14.4453125 13.43359375 16.125 15.4375 C19.49378571 19.41621323 22.9703982 23.2770561 26.49609375 27.1171875 C28 29 28 29 28 31 C28.88945312 31.38285156 28.88945312 31.38285156 29.796875 31.7734375 C32.21224538 33.11816498 33.51211706 34.49214367 35.25 36.625 C35.77078125 37.25664062 36.2915625 37.88828125 36.828125 38.5390625 C37.40820312 39.26222656 37.40820312 39.26222656 38 40 C36.74281624 43.39662125 35.31118943 46.25368333 33.2421875 49.22265625 C32.70247314 50.00342529 32.16275879 50.78419434 31.60668945 51.58862305 C31.03523193 52.40500244 30.46377441 53.22138184 29.875 54.0625 C28.69844075 55.75727265 27.5226592 57.45258548 26.34765625 59.1484375 C25.77547363 59.97311523 25.20329102 60.79779297 24.61376953 61.64746094 C21.81828539 65.72269319 19.14874401 69.87851848 16.48828125 74.04296875 C15.99714844 74.68878906 15.50601563 75.33460938 15 76 C14.34 76 13.68 76 13 76 C12.71125 76.763125 12.4225 77.52625 12.125 78.3125 C11 81 11 81 9 84 C9 84.99 9 85.98 9 87 C11.88766584 88.44383292 14.40691841 88.14619768 17.63354492 88.17016602 C19.04640384 88.1842683 20.45926082 88.1985648 21.87211609 88.21302795 C22.99789346 88.22222102 22.99789346 88.22222102 24.1464138 88.23159981 C28.12201801 88.26959445 32.09706175 88.34126403 36.07226562 88.40820312 C41.1306262 88.49260895 46.18830793 88.56671022 51.24731445 88.59692383 C55.3355141 88.62222936 59.42153397 88.68610811 63.50881386 88.77555656 C65.06306404 88.80261237 66.61762457 88.81572416 68.1721096 88.81433296 C80.30708705 88.81440462 80.30708705 88.81440462 84.55386353 91.7885437 C89 96.70145268 89 96.70145268 89 100 C89.66 100 90.32 100 91 100 C95 104.47058824 95 104.47058824 95 107 C95.66 107 96.32 107 97 107 C97 107.66 97 108.32 97 109 C97.66 109 98.32 109 99 109 C99 109.66 99 110.32 99 111 C99.66 111 100.32 111 101 111 C102.45659977 112.61382948 103.84048951 114.29363216 105.1875 116 C108.59707271 120.27575866 112.08991176 124.41099219 115.78515625 128.44140625 C117 130 117 130 117 132 C111.08109227 132.85814543 105.35961872 133.13985521 99.38378906 133.11523438 C98.43908501 133.1152092 97.49438095 133.11518402 96.5210495 133.11515808 C93.35254365 133.11332688 90.18411495 133.10374105 87.015625 133.09375 C84.72495555 133.08993834 82.43428577 133.08632262 80.14361572 133.08288574 C50.6925711 133.02464009 21.24197603 132.78429977 -8.20812368 132.55461884 C-16.17519692 132.49255854 -24.14228732 132.43284157 -32.10937929 132.37324238 C-48.40627202 132.25128219 -64.70314284 132.12662738 -81 132 C-79.74711548 128.80302121 -78.44812746 125.88493326 -76.64453125 122.9609375 C-76.19078125 122.22166016 -75.73703125 121.48238281 -75.26953125 120.72070312 C-74.78871094 119.94662109 -74.30789062 119.17253906 -73.8125 118.375 C-73.31492187 117.56740234 -72.81734375 116.75980469 -72.3046875 115.92773438 C-69.19936139 110.89871923 -66.04234825 105.90489372 -62.8515625 100.9296875 C-60.48547199 97.18587341 -58.17943253 93.40698762 -55.875 89.625 C-47.56529193 75.9878891 -39.14840844 62.41759456 -30.66772461 48.88623047 C-27.57694811 43.94523999 -24.53293582 38.9766636 -21.5 34 C-7.1474025 10.45961342 -7.1474025 10.45961342 0 0 Z " fill="#050505" transform="translate(161,275)"/>
<path d="M0 0 C2.20657719 0.00172861 4.41366736 0.06316551 6.61743164 0.17456055 C8.36716026 0.19790718 8.36716026 0.19790718 10.15223694 0.22172546 C13.86389962 0.28311933 17.56814953 0.42105998 21.27758789 0.5612793 C23.79896646 0.61647543 26.32046001 0.66666215 28.84204102 0.71166992 C35.01056912 0.83269455 41.17479916 1.01653429 47.34008789 1.2487793 C46.54306422 5.75947124 44.92903826 9.45221529 42.84008789 13.4987793 C42.31040405 14.54171143 42.31040405 14.54171143 41.77001953 15.60571289 C38.78877673 21.44792911 35.71344429 27.24039541 32.62939453 33.02880859 C29.07602274 39.70908632 25.69385026 46.46588911 22.34008789 53.2487793 C17.91254401 62.20127765 13.39304136 71.08925745 8.69165039 79.90136719 C6.21022527 84.56625521 3.80886536 89.26337995 1.46508789 93.9987793 C-2.12873846 101.25934758 -5.88016056 108.43209968 -9.65893555 115.59790039 C-12.27721231 120.57299066 -14.82117122 125.57053813 -17.28491211 130.6237793 C-19.76350829 135.60474716 -22.40617048 140.45304816 -25.22241211 145.2487793 C-25.5744873 145.86027832 -25.9265625 146.47177734 -26.28930664 147.10180664 C-28.90574084 151.46734214 -31.86990083 154.83828904 -35.65991211 158.2487793 C-36.31991211 158.2487793 -36.97991211 158.2487793 -37.65991211 158.2487793 C-37.65991211 158.9087793 -37.65991211 159.5687793 -37.65991211 160.2487793 C-47.89560138 167.36925879 -58.56677534 167.80146005 -70.65991211 166.2487793 C-75.07687064 165.1339559 -78.72330339 163.51384339 -82.65991211 161.2487793 C-83.45655273 160.84916992 -84.25319336 160.44956055 -85.07397461 160.0378418 C-90.86066578 156.92773091 -95.75596007 152.81706644 -100.72241211 148.5612793 C-101.39054932 147.99022461 -102.05868652 147.41916992 -102.74707031 146.83081055 C-103.36928467 146.28424805 -103.99149902 145.73768555 -104.63256836 145.17456055 C-105.19210205 144.68383057 -105.75163574 144.19310059 -106.328125 143.6875 C-107.65991211 142.2487793 -107.65991211 142.2487793 -108.65991211 139.2487793 C-109.31991211 139.2487793 -109.97991211 139.2487793 -110.65991211 139.2487793 C-110.65991211 137.9287793 -110.65991211 136.6087793 -110.65991211 135.2487793 C-109.60932617 135.28358398 -108.55874023 135.31838867 -107.47631836 135.35424805 C-95.66492717 135.63292482 -86.63661282 134.73695208 -77.65991211 126.2487793 C-76.18020389 124.31242521 -74.94478795 122.32434796 -73.65991211 120.2487793 C-72.99991211 120.2487793 -72.33991211 120.2487793 -71.65991211 120.2487793 C-71.41241211 119.4650293 -71.16491211 118.6812793 -70.90991211 117.8737793 C-69.94345925 115.071066 -68.90735657 112.36360436 -67.78491211 109.6237793 C-66.2746156 105.93623052 -65.04944109 102.25319717 -63.90991211 98.4362793 C-61.58430083 91.35085661 -57.74002172 85.4352019 -53.65991211 79.2487793 C-52.41500697 77.33491082 -51.17415314 75.41851005 -49.93603516 73.50024414 C-49.14268064 72.27358496 -48.34484248 71.04981099 -47.54199219 69.8293457 C-45.89776916 67.30793536 -44.61716909 65.12055024 -43.65991211 62.2487793 C-42.99991211 62.2487793 -42.33991211 62.2487793 -41.65991211 62.2487793 C-41.56194336 61.69577148 -41.46397461 61.14276367 -41.36303711 60.57299805 C-40.48847461 57.68208313 -39.0797009 55.57685241 -37.40991211 53.0612793 C-35.23085692 49.71534669 -33.12399662 46.38489609 -31.22241211 42.8737793 C-27.94386662 36.85239837 -24.27442476 31.0721608 -20.65991211 25.2487793 C-18.70939612 22.06988491 -16.76050105 18.89000326 -14.81225586 15.7097168 C-14.47943604 15.1950737 -14.14661621 14.6804306 -13.80371094 14.15019226 C-12.56269823 12.15224875 -12.56269823 12.15224875 -11.35009766 9.54231262 C-8.43604583 4.03612399 -6.49697124 0.60731958 0 0 Z " fill="#060606" transform="translate(386.659912109375,192.751220703125)"/>
<path d="M0 0 C9.45818729 -0.05397087 18.9151809 -0.06709828 28.37342834 -0.02334595 C32.52634258 -0.0052841 36.67819323 0.00030892 40.83105469 -0.03076172 C44.61258387 -0.05881195 48.39218738 -0.04892269 52.1736145 -0.01119995 C53.58919892 -0.00378746 55.00492924 -0.01019531 56.42037964 -0.03103638 C67.36162913 -0.17913055 67.36162913 -0.17913055 71.25585938 2.62353516 C73.04360934 4.65590923 74.51501059 6.73995372 76 9 C76.97369767 10.11234461 77.97028226 11.20521124 78.9921875 12.2734375 C79.46503174 12.78302002 79.93787598 13.29260254 80.42504883 13.81762695 C81.14277466 14.58852661 81.14277466 14.58852661 81.875 15.375 C86.96852261 20.870958 92.01093725 26.40880899 97 32 C97.67289062 32.74378906 98.34578125 33.48757812 99.0390625 34.25390625 C99.66554688 34.95386719 100.29203125 35.65382812 100.9375 36.375 C101.75541016 37.28378906 101.75541016 37.28378906 102.58984375 38.2109375 C104.04135381 40.0524655 105.02946548 41.87138806 106 44 C106.66 44 107.32 44 108 44 C109.515625 45.50390625 109.515625 45.50390625 111.25 47.5625 C111.86488281 48.28824219 112.47976562 49.01398438 113.11328125 49.76171875 C114.04720703 50.86966797 114.04720703 50.86966797 115 52 C115.59167969 52.66644531 116.18335938 53.33289063 116.79296875 54.01953125 C117.33566406 54.63183594 117.87835938 55.24414062 118.4375 55.875 C119.17806641 56.70644531 119.17806641 56.70644531 119.93359375 57.5546875 C121 59 121 59 121 61 C121.66 61 122.32 61 123 61 C123 61.66 123 62.32 123 63 C123.66 63 124.32 63 125 63 C125 63.66 125 64.32 125 65 C125.66 65 126.32 65 127 65 C128.60178593 66.78104718 130.13381926 68.62537278 131.625 70.5 C132.44226563 71.5209375 133.25953125 72.541875 134.1015625 73.59375 C134.72804688 74.3878125 135.35453125 75.181875 136 76 C134.61919597 78.76160806 133.18824549 78.80233529 130.3125 79.8125 C121.45851511 83.2760076 117.21993067 88.70429779 113 97 C109.68039974 105.29900066 110.69216144 114.33556955 112 123 C109 123 109 123 107.4921875 121.63671875 C106.69167969 120.67185547 106.69167969 120.67185547 105.875 119.6875 C105.2665625 118.96304688 104.658125 118.23859375 104.03125 117.4921875 C98.01226994 110.10736196 98.01226994 110.10736196 95.2109375 106.61328125 C92.93169146 103.91926076 90.51161895 101.47793107 88 99 C85.87291726 96.79197336 83.77786062 94.55525629 81.6875 92.3125 C81.13771484 91.73177734 80.58792969 91.15105469 80.02148438 90.55273438 C76 86.23151203 76 86.23151203 76 84 C75.34 84 74.68 84 74 84 C74 83.34 74 82.68 74 82 C73.34 82 72.68 82 72 82 C70.5671282 80.38281689 69.20375251 78.70376628 67.875 77 C64.43338836 72.69247005 60.87079833 68.75630358 56.92578125 64.9140625 C48.51971689 56.55915066 48.51971689 56.55915066 47 52 C46.01 51.67 45.02 51.34 44 51 C42.17578125 49.22265625 42.17578125 49.22265625 40.3125 47.0625 C39.68988281 46.35222656 39.06726563 45.64195312 38.42578125 44.91015625 C37 43 37 43 37 41 C36.34 41 35.68 41 35 41 C35 40.34 35 39.68 35 39 C34.34 39 33.68 39 33 39 C31.5546875 37.56640625 31.5546875 37.56640625 29.875 35.5625 C26.50621429 31.58378677 23.0296018 27.7229439 19.50390625 23.8828125 C18 22 18 22 18 20 C17.34 20 16.68 20 16 20 C16 19.34 16 18.68 16 18 C15.01 17.67 14.02 17.34 13 17 C11.45882932 15.28285771 9.98770149 13.50204827 8.5625 11.6875 C6.36688488 8.90490148 4.25224445 6.24620783 1.71484375 3.76953125 C0 2 0 2 0 0 Z " fill="#080808" transform="translate(129,174)"/>
<path d="M0 0 C6.45414079 5.26427126 9.57313593 10.70721759 10.59765625 18.9609375 C11.06428521 27.40692171 9.38818742 34.99712121 3.72265625 41.5234375 C1.55859375 42.74609375 1.55859375 42.74609375 -0.27734375 43.5234375 C-0.27734375 44.1834375 -0.27734375 44.8434375 -0.27734375 45.5234375 C-8.12421307 50.40593396 -16.36461347 50.42399462 -25.27734375 49.5234375 C-32.7935725 47.58709198 -38.70968202 41.48790906 -42.71484375 35.0234375 C-45.82389861 28.03145823 -45.59718392 19.47332414 -43.20703125 12.3203125 C-39.58946724 5.08518448 -34.80865897 0.78909511 -27.65234375 -2.7890625 C-18.234998 -5.51513627 -8.42260441 -5.46096821 0 0 Z " fill="#090909" transform="translate(295.27734375,266.4765625)"/>
<path d="M0 0 C0.66 0.99 1.32 1.98 2 3 C4.98757271 3.31587913 7.77206548 3.43735192 10.76416016 3.43237305 C11.67153427 3.4425647 12.57890839 3.45275635 13.51377869 3.46325684 C16.52226829 3.49352601 19.53044026 3.50267397 22.5390625 3.51171875 C24.62129791 3.52855512 26.70352309 3.54670393 28.78573608 3.56611633 C34.27332361 3.61373561 39.76086969 3.64346773 45.24859619 3.66955566 C50.84550161 3.69930114 56.44226401 3.74585201 62.0390625 3.79101562 C73.02596704 3.87718438 84.01290091 3.94446916 95 4 C95 4.33 95 4.66 95 5 C62.99 5 30.98 5 -2 5 C-1.34 3.35 -0.68 1.7 0 0 Z " fill="#191919" transform="translate(82,402)"/>
<path d="M0 0 C0.66 0.99 1.32 1.98 2 3 C4.21932277 3.50776044 4.21932277 3.50776044 6.7890625 3.51171875 C7.73007813 3.54716797 8.67109375 3.58261719 9.640625 3.61914062 C10.62546875 3.64169922 11.6103125 3.66425781 12.625 3.6875 C14.11386719 3.73874023 14.11386719 3.73874023 15.6328125 3.79101562 C18.08842906 3.87365657 20.54368141 3.94275127 23 4 C23 4.33 23 4.66 23 5 C14.75 5 6.5 5 -2 5 C-1.34 3.35 -0.68 1.7 0 0 Z " fill="#313131" transform="translate(82,402)"/>
<path d="M0 0 C0.66 0.33 1.32 0.66 2 1 C2.59355614 3.64860427 2.74209269 6.29197322 3 9 C2.01 9 1.02 9 0 9 C-1.6875 6.5 -1.6875 6.5 -3 4 C-2.34 3.67 -1.68 3.34 -1 3 C-0.67 2.01 -0.34 1.02 0 0 Z " fill="#5B5B5B" transform="translate(238,288)"/>
<path d="M0 0 C0 0.66 0 1.32 0 2 C-2.5 3.5 -2.5 3.5 -5 5 C-6.68615782 6.64694485 -8.35570171 8.31126121 -10 10 C-10.99 10.495 -10.99 10.495 -12 11 C-10.82612037 6.01101158 -7.81687611 4.01341878 -3.875 1.13671875 C-2 0 -2 0 0 0 Z " fill="#656565" transform="translate(267,265)"/>
<path d="M0 0 C0.66 0.99 1.32 1.98 2 3 C-0.35684596 6.34920216 -3.06799526 9.14723863 -6 12 C-4.43358249 7.69235185 -2.31663844 3.93828536 0 0 Z " fill="#4E4E4E" transform="translate(155,284)"/>
<path d="M0 0 C0.66 0.99 1.32 1.98 2 3 C1.01 3.495 1.01 3.495 0 4 C-0.72693904 5.97888961 -1.39816251 7.97954558 -2 10 C-2.99 10 -3.98 10 -5 10 C-3.66511872 6.40608886 -2.03977277 3.24509304 0 0 Z " fill="#646464" transform="translate(132,321)"/>
<path d="M0 0 C1 3 1 3 -0.25 5.625 C-2 8 -2 8 -5 9 C-3.7508258 5.54074837 -2.32472205 2.85306797 0 0 Z " fill="#575757" transform="translate(331,276)"/>
<path d="M0 0 C1.32 0.66 2.64 1.32 4 2 C4 2.66 4 3.32 4 4 C1 3 1 3 0 2 C-0.33 3.32 -0.66 4.64 -1 6 C-1.99 6 -2.98 6 -4 6 C-2.68 4.02 -1.36 2.04 0 0 Z " fill="#646464" transform="translate(161,275)"/>
<path d="M0 0 C0.5534764 2.07553648 1 3.84365964 1 6 C-0.96147874 7.38938077 -2.96166576 8.7260411 -5 10 C-3.66511872 6.40608886 -2.03977277 3.24509304 0 0 Z " fill="#5F5F5F" transform="translate(352,241)"/>
<path d="M0 0 C0.75 1.75 0.75 1.75 1 4 C-0.8125 6.25 -0.8125 6.25 -3 8 C-3.66 8 -4.32 8 -5 8 C-3.62845496 5.04590299 -2.01136276 2.55991624 0 0 Z " fill="#575757" transform="translate(296,153)"/>
<path d="M0 0 C1.39195915 4.17587745 -0.17676781 6.13474776 -2 10 C-2.66 9.01 -3.32 8.02 -4 7 C-3.67 6.34 -3.34 5.68 -3 5 C-2.34 5 -1.68 5 -1 5 C-1.33 4.01 -1.66 3.02 -2 2 C-1.34 1.34 -0.68 0.68 0 0 Z " fill="#6F6F6F" transform="translate(304,294)"/>
<path d="M0 0 C2.475 0.495 2.475 0.495 5 1 C4.67 1.99 4.34 2.98 4 4 C4.66 4 5.32 4 6 4 C6.33 4.99 6.66 5.98 7 7 C6.34 7 5.68 7 5 7 C5 6.34 5 5.68 5 5 C4.01 4.67 3.02 4.34 2 4 C0.8125 1.9375 0.8125 1.9375 0 0 Z " fill="#666666" transform="translate(140,187)"/>
</svg>
